# xmcd
#
# Track frame offsets:
#	150
#	12830
#	29697
#	44368
#	59259
#	77285
#	89266
#	105267
#	126638
#	146042
#	157980
#	171683
#
# Disc length: 2519
#
# Revision: 3
# Processed by: cddbd v1.5.1PL0 Copyright (c) Steve Scherf et al.
# Submitted via: audiograbber 1.81.03
# Normalized: r1:TDELIM( - );r2:TSWAP
#
DISCID=9c09d50c
DTITLE=Various Artist - Ultimate Soul Classics (Vol 3)
DYEAR=1900
DGENRE=
TTITLE0=Natalic Cole - This Will Be
TTITLE1=Ashford and Simpson - Solid
TTITLE2=The Five Stairsteps - Ooh Child
TTITLE3=Cornelius Broth.&Sister Rose - Too Late To Turn Back Now
TTITLE4=Teddy Pendergrass - I Don't Love You Any More
TTITLE5=Bobby Womack - Lookin' For A Love
TTITLE6=Luther Ingram - If Loving You Is Wrong
TTITLE7=Freddie Jackson - You Are My Lady
TTITLE8=The Deele - Two Occasions
TTITLE9=The Intruders - Cowboys To Girls
TTITLE10=Sly Johnson - Take Me To The River
TTITLE11=Brass Construction - Movin'
EXTD=
EXTT0=
EXTT1=
EXTT2=
EXTT3=
EXTT4=
EXTT5=
EXTT6=
EXTT7=
EXTT8=
EXTT9=
EXTT10=
EXTT11=
PLAYORDER=
